<?xml version="1.0" encoding="iso-8859-1"?>
<!-- Generator: Adobe Illustrator 19.0.0, SVG Export Plug-In . SVG Version: 6.00 Build 0)  -->
<svg version="1.1" id="Layer_1" xmlns="http://www.w3.org/2000/svg" xmlns:xlink="http://www.w3.org/1999/xlink" x="0px" y="0px"
	 viewBox="0 0 512 512" style="enable-background:new 0 0 512 512;" xml:space="preserve">
<g>
	<g>
		<path d="M511.47,240.063c-19.337-74.972-66.682-116.73-102.995-138.557c-39.161-23.54-73.841-29.434-75.298-29.674l-5.314-0.873
			L0,233.885v207.155h512V242.113L511.47,240.063z M332.698,105.842c10.019,2.387,33.864,9.224,59.644,24.929
			c38.183,23.26,65.111,55.75,80.278,96.766H87.809L332.698,105.842z M478.608,407.649H33.391v-63.313
			c16.732,1.341,27.156,4.673,38.039,8.155c15.184,4.858,32.394,10.366,64.912,10.366c32.519,0,49.729-5.507,64.913-10.366
			c14.107-4.513,27.431-8.777,54.737-8.777c27.308,0,40.632,4.264,54.739,8.777c15.185,4.858,32.395,10.366,64.916,10.366
			c32.52,0,49.731-5.507,64.915-10.366c10.884-3.482,21.309-6.814,38.045-8.155V407.649z M478.609,310.859
			c-22.179,1.498-35.87,5.879-48.22,9.83c-14.107,4.515-27.432,8.777-54.739,8.777c-27.309,0-40.633-4.264-54.741-8.777
			c-15.185-4.858-32.395-10.366-64.916-10.366c-32.519,0-49.73,5.507-64.914,10.366c-14.107,4.515-27.431,8.777-54.737,8.777
			c-27.305,0-40.628-4.263-54.735-8.777c-12.349-3.951-26.041-8.332-48.216-9.83v-49.931h445.219V310.859z"/>
	</g>
</g>
<g>
	<g>
		<path d="M339.021,123.949c-28.491,0-51.669,20.494-51.669,45.685s23.178,45.685,51.669,45.685
			c28.489,0,51.667-20.494,51.667-45.685S367.51,123.949,339.021,123.949z M339.021,181.927c-9.737,0-18.277-5.744-18.277-12.294
			c0-6.549,8.54-12.294,18.277-12.294c9.736,0,18.276,5.744,18.276,12.294C357.297,176.183,348.757,181.927,339.021,181.927z"/>
	</g>
</g>
<g>
</g>
<g>
</g>
<g>
</g>
<g>
</g>
<g>
</g>
<g>
</g>
<g>
</g>
<g>
</g>
<g>
</g>
<g>
</g>
<g>
</g>
<g>
</g>
<g>
</g>
<g>
</g>
<g>
</g>
</svg>
