<svg class="icon" style="width: 1em; height: 1em;vertical-align: middle;fill: currentColor;overflow: hidden;" viewBox="0 0 1024 1024" version="1.1" xmlns="http://www.w3.org/2000/svg"><path d="M173.12256 184.86272h744.62208v-34.8928H173.11744c-72.6016 0-131.6608 59.05408-131.6608 131.6608 0 72.576 59.05408 131.6352 131.6608 131.6352h75.12064c62.208 43.53536 168.68864 84.07552 350.8224 87.22944v-197.3248H162.5088s6.19008 34.79552 44.672 75.19744h-34.06848c-53.34016 0-96.74752-43.40736-96.74752-96.73728-0.01536-53.36064 43.40736-96.768 96.74752-96.768m189.4912 145.6128c16.384 0 29.66528 13.30176 29.66528 29.696a29.696 29.696 0 0 1-29.66528 29.71648 29.69088 29.69088 0 0 1-29.696-29.71136c0-16.39936 13.28128-29.696 29.696-29.696m266.99264-23.37792s140.98944-16.4352 221.312 66.2528l-244.48 251.52512-27.45856-27.10528 97.29536-96h-46.6688V307.10272z m252.31872 91.63264l-151.88992 141.45536 33.152 41.02656-55.00416-4.352-71.61856 69.8368 27.0848 27.04384 50.0992-50.06848h263.32672c0.01536 0 27.9552-120.15616-95.15008-224.94208m82.95936 252.49792h-198.84544v43.10016h-95.95392v40.22784h64.92672l93.66528 97.1008s84.46464-9.77408 136.20736-180.4288m-261.91872 98.46272s-78.57664 49.77664-72.47872 137.95328c0 0 99.56352-3.49184 160.65536-41.0112l-88.17664-96.94208z m-326.54336-24.43264s51.5072 130.97472 219.99616 162.38592c0 0.01536 18.37056-176.35328-219.99616-162.38592" /></svg>